<?xml version="1.0" encoding="UTF-8" standalone="no"?>
<!-- Created with Inkscape (http://www.inkscape.org/) -->

<svg
   width="139.76201mm"
   height="90.984108mm"
   viewBox="0 0 139.76201 90.984108"
   version="1.1"
   id="svg1000"
   xmlns="http://www.w3.org/2000/svg"
   xmlns:svg="http://www.w3.org/2000/svg">
  <defs
     id="defs997" />
  <g
     id="layer1"
     transform="translate(-64.650108,-9.5238655)">
    <path
       id="path889"
       style="display:inline;fill:#ff06ba;fill-opacity:0.823103;fill-rule:evenodd;stroke:none;stroke-width:5.76001;stroke-linecap:square;stroke-linejoin:round;stroke-dasharray:none;stroke-opacity:0.625242;stop-color:#000000"
       d="m 72.355064,9.5238655 c -4.207415,0 -7.704956,3.4954745 -7.704956,7.7028885 v 70.8148 c 0,6.837529 5.629342,12.466416 12.466939,12.466416 H 191.94518 c 6.83752,0 12.46694,-5.628887 12.46694,-12.466416 v -70.8148 c 0,-4.207409 -3.4982,-7.7028805 -7.70547,-7.7028885 z M 114.5313,13.993877 c 0.57995,-3.7e-5 1.0501,0.470115 1.05007,1.050065 3e-5,0.57995 -0.47012,1.0501 -1.05007,1.050064 -0.57995,3.6e-5 -1.0501,-0.470114 -1.05006,-1.050064 -4e-5,-0.57995 0.47011,-1.050102 1.05006,-1.050065 z m 39.99963,0 c 0.57995,-3.3e-5 1.0501,0.470116 1.05006,1.050065 4e-5,0.579948 -0.47011,1.050097 -1.05006,1.050064 -0.57995,3.9e-5 -1.05011,-0.470113 -1.05007,-1.050064 -4e-5,-0.579952 0.47012,-1.050104 1.05007,-1.050065 z m -75.319954,3.530019 c 0.01791,-1.44e-4 0.0358,0 0.05374,0 h 19.502169 c 2.191815,0 3.968755,1.776913 3.968755,3.96875 v 19.577615 c -0.009,3.304489 -3.549571,3.462397 -5.365569,1.742013 L 77.603839,22.081238 c -1.512517,-1.586324 -1.327299,-4.227015 0.813904,-4.503085 0.25991,-0.03352 0.524601,-0.0521 0.793233,-0.05426 z m 43.764774,0.721919 c 0.038,-1.5e-4 0.0762,4.19e-4 0.1142,0.0016 0.40532,0.01207 0.80962,0.09755 1.18598,0.261482 l 7.76386,3.295406 c 1.51744,0.62737 2.44182,2.453781 1.81436,3.972884 -0.44734,1.053863 -0.20571,2.057961 0.42168,2.96416 l 2.64325,1.121896 -4.96817,11.704195 -2.64273,-1.121896 c -1.08799,0.178002 -1.97877,0.702398 -2.42621,1.756482 -0.65688,1.506647 -2.6127,2.110412 -4.1181,1.454692 l -7.76386,-3.295406 c -1.51741,-0.627392 -2.44185,-2.453772 -1.81436,-3.972884 0.44742,-1.054084 0.2057,-2.059374 -0.4222,-2.965711 l -2.64325,-1.121895 4.96817,-11.704195 2.64325,1.122412 c 1.08785,-0.178125 1.97886,-0.701586 2.42621,-1.755449 0.47726,-1.094659 1.64018,-1.71308 2.81792,-1.717724 z m 17.99528,2.145606 h 48.82648 c 3.65289,0 6.61458,2.961521 6.61458,6.614583 v 49.22852 h -30.18007 -0.94826 L 140.97103,51.921277 Z M 74.258307,30.855896 c 0.399637,0.0017 0.806043,0.155082 1.13068,0.495577 l 16.439307,17.241841 c 1.532033,1.606794 1.529075,4.134405 -0.0072,5.737118 L 75.396222,71.465304 c -0.994543,1.03755 -2.746086,0.333408 -2.746086,-1.103808 V 32.448048 c 0,-0.963319 0.789887,-1.595703 1.608171,-1.592152 z m -5.607926,5.127852 c 0.579546,2.49e-4 1.049299,0.470003 1.049548,1.049549 3.6e-5,0.579748 -0.4698,1.049815 -1.049548,1.050065 -0.57995,3.7e-5 -1.050101,-0.470115 -1.050065,-1.050065 2.49e-4,-0.579748 0.470317,-1.049585 1.050065,-1.049549 z m 131.741829,0 c 0.57975,-3.9e-5 1.04982,0.469799 1.05007,1.049549 4e-5,0.579952 -0.47012,1.050104 -1.05007,1.050065 -0.57995,3.9e-5 -1.05011,-0.470112 -1.05007,-1.050065 2.5e-4,-0.57975 0.47032,-1.049588 1.05007,-1.049549 z m -81.90043,11.70988 c 0.18436,1.17e-4 0.36544,0.04877 0.52504,0.141076 0.50194,0.290628 0.67317,0.933189 0.3824,1.435055 -0.29061,0.501637 -0.93279,0.672822 -1.43454,0.382406 -0.50182,-0.290437 -0.67325,-0.932651 -0.38292,-1.434538 0.18794,-0.324701 0.53485,-0.524454 0.91002,-0.523999 z m -1.97145,8.707995 c 0.0338,-1.36e-4 0.0675,0 0.10128,0 4.32326,0 8.64708,1.119643 12.52482,3.358452 7.75543,4.477592 12.52326,12.738039 12.52327,21.693249 v 11.055139 h -40.96133 c -6.553918,0 -9.134324,-3.021074 -9.134324,-11.055138 10e-7,-8.955209 4.767807,-17.215658 12.523264,-21.693249 3.84742,-2.221318 8.13355,-3.341095 12.42302,-3.358453 z m 26.20357,5.320606 c 0.18423,3.65e-4 0.36512,0.0492 0.52451,0.141593 0.50182,0.290437 0.67325,0.932652 0.38292,1.434538 -0.29045,0.502132 -0.93305,0.673601 -1.43505,0.382922 -0.50195,-0.290628 -0.67317,-0.933188 -0.38241,-1.435054 0.18795,-0.324701 0.53485,-0.524454 0.91003,-0.523999 z m -74.073519,2.26136 c 0.579748,2.5e-4 1.049584,0.470318 1.049548,1.050066 3.6e-5,0.579748 -0.4698,1.049815 -1.049548,1.050065 -0.57995,3.6e-5 -1.050101,-0.470115 -1.050065,-1.050065 -3.6e-5,-0.57995 0.470115,-1.050102 1.050065,-1.050066 z m 131.741829,0 c 0.57995,-3.9e-5 1.05011,0.470114 1.05007,1.050066 4e-5,0.579952 -0.47012,1.050104 -1.05007,1.050065 -0.57995,3.9e-5 -1.05011,-0.470113 -1.05007,-1.050065 -4e-5,-0.579952 0.47012,-1.050105 1.05007,-1.050066 z m -51.44492,7.700306 c 0.30553,-2.7e-5 0.7798,0.307271 1.40921,0.936893 l 17.08113,17.081128 c 1.03561,1.035606 0.30237,2.806546 -1.1622,2.806546 h -12.63696 c -2.19166,0 -3.96875,-1.77687 -3.96875,-3.968749 v -7.086389 c 0,-2.678179 -0.32494,-5.311148 -0.94671,-7.850167 -0.30936,-1.263277 -0.22227,-1.919224 0.22428,-1.919262 z m -65.69625,3.706233 c 0.527352,-0.0092 0.742183,0.672235 0.578259,1.979724 -0.168584,1.344674 -0.255281,2.707959 -0.255282,4.083472 v 7.086389 c 0,2.191879 -1.776914,3.968749 -3.96875,3.968749 h -2.48822 c -2.514176,0 -4.466911,-1.952733 -4.466911,-4.466909 0.234629,-1.963004 1.218819,-3.759464 2.746603,-5.014165 l 6.414079,-6.691581 c 0.604327,-0.630424 1.090923,-0.939578 1.440222,-0.945679 z m 109.24243,8.843388 c 0.0167,-1.9e-4 0.0334,-7.5e-5 0.0501,0 2.10194,0.0095 3.82453,1.694416 3.8685,3.808037 0,2.514175 -1.95266,4.466909 -4.46691,4.466909 h -6.41925 c -2.54093,0 -4.97843,-1.00969 -6.77529,-2.806546 l -2.66082,-2.660819 c -1.03561,-1.035583 -0.30237,-2.806547 1.1622,-2.806547 h 15.19132 c 0.0168,-3.49e-4 0.0334,-8.44e-4 0.0501,-0.001 z m -53.76778,11.229287 c 0.57995,-4e-5 1.0501,0.47012 1.05006,1.05007 -2.4e-4,0.57975 -0.47031,1.04959 -1.05006,1.04955 -0.57975,4e-5 -1.04982,-0.4698 -1.05007,-1.04955 -3e-5,-0.57995 0.47012,-1.05011 1.05007,-1.05007 z m 27.99984,0 c 0.57995,-4e-5 1.05011,0.47012 1.05007,1.05007 -2.5e-4,0.57975 -0.47032,1.04959 -1.05007,1.04955 -0.57975,3e-5 -1.04981,-0.4698 -1.05006,-1.04955 -4e-5,-0.57995 0.47011,-1.0501 1.05006,-1.05007 z" />
  </g>
</svg>
