<?xml version="1.0" encoding="UTF-8" standalone="no"?>
<!-- Created with Inkscape (http://www.inkscape.org/) -->

<svg
   width="46.00029mm"
   height="48.000172mm"
   viewBox="0 0 46.00029 48.000172"
   version="1.1"
   id="svg6424"
   xmlns="http://www.w3.org/2000/svg"
   xmlns:svg="http://www.w3.org/2000/svg">
  <defs
     id="defs6421" />
  <g
     id="layer1"
     transform="translate(-25.768889,-21.106169)">
    <path
       id="rect6170"
       style="display:inline;fill:#d23b3b;fill-rule:evenodd;stroke-width:5.33787;stroke-linecap:square;stroke-linejoin:round;stroke-opacity:0.625242;stop-color:#000000"
       d="m 65.769029,21.106169 v 5.1e-4 h -34.00051 -5.99963 v 5.99964 42.00002 h 5.99963 v -5.2e-4 h 34.00051 6.00015 v -5.99963 -42.00002 z m -28.48077,6.00015 h 22.96051 a 1.2801834,1.2801834 66.89071 0 1 0.924273,2.165954 l -8.944978,9.333793 c -1.886382,1.968379 -5.032708,1.96838 -6.919092,1e-6 l -8.944985,-9.333795 a 1.2801828,1.2801828 113.10928 0 1 0.924272,-2.165953 z m -3.444014,5.317185 8.69487,9.07282 c 1.934,2.018068 1.934,5.201782 10e-7,7.219851 l -8.694871,9.072829 a 1.205426,1.205426 21.890689 0 1 -2.075726,-0.834045 v -23.69741 a 1.2054266,1.2054266 158.1093 0 1 2.075726,-0.834045 z m 31.924784,0.834555 v 23.69638 a 1.2054565,1.2054565 158.10881 0 1 -2.075764,0.834081 l -8.69477,-9.072406 c -1.934016,-2.018015 -1.934016,-5.201715 0,-7.21973 l 8.69477,-9.072406 a 1.2054565,1.2054565 21.891191 0 1 2.075764,0.834081 z m -13.5409,18.348321 8.945394,9.333892 a 1.2801516,1.2801516 113.10878 0 1 -0.924234,2.165917 h -22.96154 a 1.2801516,1.2801516 66.891224 0 1 -0.924234,-2.165917 l 8.945394,-9.333892 c 1.886439,-1.968367 5.032781,-1.968367 6.91922,0 z" />
  </g>
</svg>
