<?xml version="1.0" encoding="UTF-8" standalone="no"?>
<!-- Created with Inkscape (http://www.inkscape.org/) -->

<svg
   width="13.180075mm"
   height="56.569672mm"
   viewBox="0 0 13.180075 56.569672"
   version="1.1"
   id="svg1255"
   inkscape:version="1.2.2 (b0a8486541, 2022-12-01)"
   sodipodi:docname="frame-front-cover-mounts.svg"
   xmlns:inkscape="http://www.inkscape.org/namespaces/inkscape"
   xmlns:sodipodi="http://sodipodi.sourceforge.net/DTD/sodipodi-0.dtd"
   xmlns="http://www.w3.org/2000/svg"
   xmlns:svg="http://www.w3.org/2000/svg">
  <sodipodi:namedview
     id="namedview1257"
     pagecolor="#ffffff"
     bordercolor="#666666"
     borderopacity="1.0"
     inkscape:showpageshadow="2"
     inkscape:pageopacity="0.0"
     inkscape:pagecheckerboard="0"
     inkscape:deskcolor="#d1d1d1"
     inkscape:document-units="mm"
     showgrid="false"
     inkscape:zoom="1.5229414"
     inkscape:cx="-59.096166"
     inkscape:cy="96.85205"
     inkscape:window-width="1598"
     inkscape:window-height="878"
     inkscape:window-x="0"
     inkscape:window-y="20"
     inkscape:window-maximized="1"
     inkscape:current-layer="layer1" />
  <defs
     id="defs1252">
    <inkscape:path-effect
       effect="fillet_chamfer"
       id="path-effect1226"
       is_visible="true"
       lpeversion="1"
       nodesatellites_param="F,0,0,1,0,0,0,1 @ F,0,1,1,0,3.96875,0,1 @ F,0,0,1,0,0,0,1 @ F,0,0,1,0,0,0,1 @ F,0,1,1,0,3.96875,0,1 @ F,0,0,1,0,0,0,1 @ F,0,0,1,0,0,0,1 @ F,0,0,1,0,0,0,1 @ F,0,0,1,0,0,0,1 @ F,0,0,1,0,0,0,1"
       unit="px"
       method="auto"
       mode="F"
       radius="15"
       chamfer_steps="1"
       flexible="false"
       use_knot_distance="true"
       apply_no_radius="true"
       apply_with_radius="true"
       only_selected="true"
       hide_knots="false" />
    <inkscape:path-effect
       effect="fillet_chamfer"
       id="path-effect1232"
       is_visible="true"
       lpeversion="1"
       nodesatellites_param="F,0,0,1,0,0,0,1 @ F,0,1,1,0,3.96875,0,1 @ F,0,0,1,0,0,0,1 @ F,0,0,1,0,0,0,1 @ F,0,1,1,0,3.96875,0,1 @ F,0,0,1,0,0,0,1 @ F,0,0,1,0,0,0,1 @ F,0,0,1,0,0,0,1 @ F,0,0,1,0,0,0,1 @ F,0,0,1,0,0,0,1"
       unit="px"
       method="auto"
       mode="F"
       radius="15"
       chamfer_steps="1"
       flexible="false"
       use_knot_distance="true"
       apply_no_radius="true"
       apply_with_radius="true"
       only_selected="true"
       hide_knots="false" />
  </defs>
  <g
     inkscape:label="Layer 1"
     inkscape:groupmode="layer"
     id="layer1"
     transform="translate(-70.261451,-62.128678)">
    <path
       id="path1228"
       style="display:inline;fill:#ff06ba;fill-opacity:0.823103;fill-rule:evenodd;stroke-width:5.15501;stroke-linecap:round;stroke-linejoin:round;-inkscape-stroke:none;stop-color:#000000"
       d="m 77.428456,102.12882 v 0.31574 a 3.96875,3.96875 0 0 1 -3.96875,3.96875 h -3.198255 v 8.00003 h 3.198255 a 3.96875,3.96875 0 0 1 3.96875,3.96875 v 0.31626 h 6.01307 v -4.28501 -8.00003 -4.28449 z m 3.833358,1.23455 a 1.05,1.05 0 0 1 1.049548,1.05007 1.05,1.05 0 0 1 -1.049548,1.05006 1.05,1.05 0 0 1 -1.050065,-1.05006 1.05,1.05 0 0 1 1.050065,-1.05007 z M 77.428456,62.128678 v 0.315743 a 3.96875,3.96875 0 0 1 -3.96875,3.96875 H 70.261451 V 74.4132 h 3.198255 a 3.96875,3.96875 0 0 1 3.96875,3.96875 v 0.316259 h 6.01307 V 74.4132 66.413171 62.128678 Z m 3.833358,13.234851 a 1.05,1.05 0 0 1 1.049548,1.049549 1.05,1.05 0 0 1 -1.049548,1.050065 1.05,1.05 0 0 1 -1.050065,-1.050065 1.05,1.05 0 0 1 1.050065,-1.049549 z" />
  </g>
</svg>
