<?xml version="1.0" encoding="UTF-8" standalone="no"?>
<!-- Created with Inkscape (http://www.inkscape.org/) -->

<svg
   width="139.76201mm"
   height="90.984108mm"
   viewBox="0 0 139.76201 90.984108"
   version="1.1"
   id="svg14388"
   xmlns="http://www.w3.org/2000/svg"
   xmlns:svg="http://www.w3.org/2000/svg">
  <defs
     id="defs14385" />
  <g
     id="layer1"
     transform="translate(-39.822124,-38.126279)">
    <path
       id="path13490"
       style="display:inline;fill:#019bff;fill-opacity:0.778406;fill-rule:evenodd;stroke:none;stroke-width:4.25802;stroke-linecap:square;stroke-linejoin:round;stroke-dasharray:none;stroke-opacity:0.625242;stop-color:#000000"
       d="m 87.629065,68.025635 0.566402,-4.743668 -3.47472,-2.205041 0.679927,-1.601807 22.674436,9.624726 -0.67993,1.601807 -3.99992,-0.967754 -3.01885,3.702664 z m 3.66851,-1.15883 7.364065,3.12586 c 0.50996,0.216465 1.094691,-0.01978 1.311156,-0.529742 0.216464,-0.50996 -0.01978,-1.094692 -0.529741,-1.311157 l -7.364064,-3.12586 c -0.509959,-0.216465 -1.094692,0.01978 -1.311157,0.529742 -0.216465,0.50996 0.01978,1.094693 0.529741,1.311157 z" />
    <path
       id="path13492"
       style="display:inline;fill:#019bff;fill-opacity:0.778406;fill-rule:evenodd;stroke:none;stroke-width:4.25802;stroke-linecap:square;stroke-linejoin:round;stroke-dasharray:none;stroke-opacity:0.625242;stop-color:#000000"
       d="m 97.006647,45.933436 -3.018853,3.702664 -3.999917,-0.967754 -0.679927,1.601807 22.67443,9.624726 0.67993,-1.601807 -3.47472,-2.205041 0.5664,-4.743668 z m 1.714769,3.443897 7.364064,3.12586 c 0.50996,0.216465 0.74621,0.801197 0.52974,1.311157 -0.21646,0.509959 -0.80119,0.746207 -1.31115,0.529742 l -7.364069,-3.12586 c -0.509959,-0.216465 -0.746206,-0.801197 -0.529741,-1.311157 0.216465,-0.50996 0.801197,-0.746207 1.311156,-0.529742 z" />
    <path
       id="path6737-0"
       style="font-variation-settings:normal;display:inline;vector-effect:none;fill:#019bff;fill-opacity:0.778406;fill-rule:evenodd;stroke:none;stroke-width:4.25802;stroke-linecap:square;stroke-linejoin:round;stroke-miterlimit:4;stroke-dasharray:none;stroke-dashoffset:0;stroke-opacity:0.625242;-inkscape-stroke:none;stop-color:#000000"
       d="m 141.22254,52.02188 c 0.0305,-1.63161 -2.40268,-3.041435 -4.81149,-3.115354 l -0.017,-0.876438 h 17.7559 l -0.017,0.876438 c -2.61328,0.11567 -4.75299,1.651376 -4.81145,3.115354 -0.0366,2.900102 -2.3674,3.59514 -3.95985,3.580207 h -0.1794 c -1.59245,0.01493 -3.95985,-0.630069 -3.95985,-3.580207 z m 4.04921,2.029914 c 0.80085,2.8e-5 1.45007,-0.649193 1.45005,-1.450041 -2.6e-4,-0.800646 -0.6494,-1.449551 -1.45005,-1.449523 -0.80064,-2.2e-5 -1.44978,0.648881 -1.45004,1.449523 -2e-5,0.800845 0.6492,1.450063 1.45004,1.450041 z" />
    <path
       id="path13841"
       style="font-variation-settings:normal;display:inline;vector-effect:none;fill:#019bff;fill-opacity:0.778406;fill-rule:evenodd;stroke:none;stroke-width:4.25802;stroke-linecap:square;stroke-linejoin:round;stroke-miterlimit:4;stroke-dasharray:none;stroke-dashoffset:0;stroke-opacity:0.625242;-inkscape-stroke:none;stop-color:#000000"
       d="m 111.85822,48.906526 -0.017,-0.876438 h 17.75591 l -0.017,0.876438 c -2.61328,0.11567 -4.75299,1.651376 -4.81145,3.115354 -0.0366,2.900102 -2.3674,3.59514 -3.95985,3.580207 h -8.90106 z m 8.86071,5.145268 c 0.80085,2.8e-5 1.45007,-0.649193 1.45005,-1.450041 -2.6e-4,-0.800646 -0.6494,-1.449551 -1.45005,-1.449523 -0.80064,-2.2e-5 -1.44978,0.648881 -1.45004,1.449523 -2e-5,0.800845 0.6492,1.450063 1.45004,1.450041 z" />
    <path
       id="path13843"
       style="font-variation-settings:normal;display:inline;vector-effect:none;fill:#019bff;fill-opacity:0.778406;fill-rule:evenodd;stroke:none;stroke-width:4.25802;stroke-linecap:square;stroke-linejoin:round;stroke-miterlimit:4;stroke-dasharray:none;stroke-dashoffset:0;stroke-opacity:0.625242;-inkscape-stroke:none;stop-color:#000000"
       d="m 168.40043,60.204286 c 1.63161,0.0305 3.20229,-2.40268 3.27621,-4.81149 l 0.87643,-0.017 v 17.7559 l -0.87643,-0.017 c -0.11567,-2.61328 -1.81223,-4.75299 -3.27621,-4.81145 -2.9001,-0.0366 -3.59514,-2.3674 -3.5802,-3.95985 v -0.1794 c -0.0149,-1.59245 0.63006,-3.95985 3.5802,-3.95985 z m -2.02991,4.04921 c -3e-5,0.80085 0.64919,1.45007 1.45004,1.45005 0.80065,-2.6e-4 1.44955,-0.6494 1.44952,-1.45005 2e-5,-0.80064 -0.64888,-1.44978 -1.44952,-1.45004 -0.80085,-2e-5 -1.45006,0.6492 -1.45004,1.45004 z" />
    <path
       id="path13845"
       style="font-variation-settings:normal;display:inline;vector-effect:none;fill:#019bff;fill-opacity:0.778406;fill-rule:evenodd;stroke:none;stroke-width:4.25802;stroke-linecap:square;stroke-linejoin:round;stroke-miterlimit:4;stroke-dasharray:none;stroke-dashoffset:0;stroke-opacity:0.625242;-inkscape-stroke:none;stop-color:#000000"
       d="m 168.40043,95.377346 c 1.63161,0.0305 3.20229,-2.40268 3.27621,-4.81149 l 0.87643,-0.017 v 15.589434 l -0.87643,-0.017 -6.85641,0.004 v -6.788414 c -0.0149,-1.59245 0.63006,-3.95985 3.5802,-3.95985 z m -2.02991,4.04921 c -3e-5,0.800854 0.64919,1.450074 1.45004,1.450054 0.80065,-2.6e-4 1.44955,-0.6494 1.44952,-1.450054 2e-5,-0.80064 -0.64888,-1.44978 -1.44952,-1.45004 -0.80085,-2e-5 -1.45006,0.6492 -1.45004,1.45004 z" />
    <path
       id="path13486"
       style="display:inline;fill:#ff06ba;fill-opacity:0.823103;fill-rule:evenodd;stroke:none;stroke-width:5.76001;stroke-linecap:square;stroke-linejoin:round;stroke-dasharray:none;stroke-opacity:0.625242;stop-color:#000000"
       d="m 47.52708,38.126279 c -4.207415,0 -7.704956,3.495474 -7.704956,7.702889 v 70.814802 c 0,6.83753 5.629342,12.46642 12.466939,12.46642 H 167.1172 c 6.83752,0 12.46694,-5.62889 12.46694,-12.46642 V 45.829168 c 0,-4.20741 -3.4982,-7.702881 -7.70547,-7.702889 z m 42.176237,4.470011 a 1.05,1.05 0 0 1 1.050065,1.050065 1.05,1.05 0 0 1 -1.050065,1.050065 1.05,1.05 0 0 1 -1.050065,-1.050065 1.05,1.05 0 0 1 1.050065,-1.050065 z m 39.999633,0 a 1.05,1.05 0 0 1 1.05006,1.050065 1.05,1.05 0 0 1 -1.05006,1.050065 1.05,1.05 0 0 1 -1.05007,-1.050065 1.05,1.05 0 0 1 1.05007,-1.050065 z m -85.880553,3.489709 a 1.05,1.05 0 0 1 1.049548,1.050066 1.05,1.05 0 0 1 -1.049548,1.050065 1.05,1.05 0 0 1 -1.050065,-1.050065 1.05,1.05 0 0 1 1.050065,-1.050066 z m 131.741833,0 a 1.05,1.05 0 0 1 1.05007,1.050066 1.05,1.05 0 0 1 -1.05007,1.050065 1.05,1.05 0 0 1 -1.05007,-1.050065 1.05,1.05 0 0 1 1.05007,-1.050066 z m -121.181238,0.04031 c 0.01791,-1.44e-4 0.0358,0 0.05374,0 h 19.502169 c 2.191814,0 3.96875,1.776914 3.96875,3.96875 v 19.577616 c -0.0088,3.304489 -3.549566,3.462397 -5.365564,1.742013 L 52.775855,50.683652 c -1.512517,-1.586325 -1.327299,-4.227015 0.813904,-4.503085 0.25991,-0.03352 0.524601,-0.0521 0.793233,-0.05426 z m 43.764771,0.72192 c 0.03799,-1.5e-4 0.07621,4.18e-4 0.114205,0.0016 0.405314,0.01207 0.809619,0.09755 1.185974,0.261483 l 7.763868,3.295406 c 1.51743,0.627369 2.44182,2.453781 1.81436,3.972884 -0.44735,1.053863 -0.20572,2.057961 0.42168,2.96416 l 2.64325,1.121896 -4.96817,11.704195 -2.64274,-1.121896 c -1.08798,0.178002 -1.97876,0.702398 -2.42621,1.756482 -0.65688,1.506647 -2.612692,2.110412 -4.118091,1.454692 l -7.763867,-3.295406 c -1.517409,-0.627392 -2.441844,-2.453772 -1.814359,-3.972884 0.447419,-1.054084 0.205702,-2.059374 -0.422197,-2.965711 l -2.643249,-1.121895 4.968172,-11.704195 2.643249,1.122412 c 1.087849,-0.178125 1.978861,-0.701586 2.426209,-1.755449 0.477256,-1.094659 1.640178,-1.71308 2.817916,-1.717724 z m 17.995287,2.145605 h 48.82648 c 3.65289,0 6.61458,2.961522 6.61458,6.614584 v 49.228522 h -30.18007 -0.94826 L 116.14305,80.523691 Z m -64.08188,5.866309 a 1.05,1.05 0 0 1 0.773596,0.326595 1.05,1.05 0 0 1 -0.03772,1.484664 1.05,1.05 0 0 1 -1.484664,-0.03772 1.05,1.05 0 0 1 0.03772,-1.484664 1.05,1.05 0 0 1 0.47749,-0.259416 1.05,1.05 0 0 1 0.233577,-0.02945 z m 3.444234,3.624585 a 1.05,1.05 0 0 1 0.773597,0.326595 1.05,1.05 0 0 1 -0.03772,1.484664 1.05,1.05 0 0 1 -1.484664,-0.03772 1.05,1.05 0 0 1 0.03772,-1.484664 1.05,1.05 0 0 1 0.47749,-0.259416 1.05,1.05 0 0 1 0.233577,-0.02945 z m -6.075081,0.973584 c 0.399637,0.0017 0.806043,0.155081 1.13068,0.495577 L 67.00031,77.19573 c 1.532033,1.606794 1.529075,4.134406 -0.0072,5.737116 L 50.568238,100.06772 c -0.994543,1.03755 -2.746086,0.33341 -2.746086,-1.103814 V 61.050461 c 0,-0.963319 0.789887,-1.595702 1.608171,-1.592151 z m 9.519316,2.651001 a 1.05,1.05 0 0 1 0.773596,0.326595 1.05,1.05 0 0 1 -0.03824,1.484664 1.05,1.05 0 0 1 -1.484147,-0.03772 1.05,1.05 0 0 1 0.03772,-1.484664 1.05,1.05 0 0 1 0.47749,-0.259416 1.05,1.05 0 0 1 0.233578,-0.02945 z m -15.127242,2.476851 a 1.05,1.05 0 0 1 1.049548,1.049549 1.05,1.05 0 0 1 -1.049548,1.050065 1.05,1.05 0 0 1 -1.050065,-1.050065 1.05,1.05 0 0 1 1.050065,-1.049549 z m 131.741833,0 a 1.05,1.05 0 0 1 1.05007,1.049549 1.05,1.05 0 0 1 -1.05007,1.050065 1.05,1.05 0 0 1 -1.05007,-1.050065 1.05,1.05 0 0 1 1.05007,-1.049549 z M 62.393873,65.733896 a 1.05,1.05 0 0 1 0.773596,0.326595 1.05,1.05 0 0 1 -0.03824,1.484664 1.05,1.05 0 0 1 -1.484147,-0.03772 1.05,1.05 0 0 1 0.03772,-1.484664 1.05,1.05 0 0 1 0.47749,-0.259416 1.05,1.05 0 0 1 0.233578,-0.02945 z m 3.444234,3.624585 a 1.05,1.05 0 0 1 0.773596,0.326595 1.05,1.05 0 0 1 -0.03824,1.484664 1.05,1.05 0 0 1 -1.484147,-0.03772 1.05,1.05 0 0 1 0.03772,-1.484664 1.05,1.05 0 0 1 0.477491,-0.259416 1.05,1.05 0 0 1 0.233577,-0.02945 z m 3.444234,3.624585 a 1.05,1.05 0 0 1 0.773596,0.326595 1.05,1.05 0 0 1 -0.03824,1.484664 1.05,1.05 0 0 1 -1.484147,-0.03772 1.05,1.05 0 0 1 0.03772,-1.484664 1.05,1.05 0 0 1 0.47749,-0.259416 1.05,1.05 0 0 1 0.233577,-0.02945 z m 24.381458,3.312976 a 1.05,1.05 0 0 1 0.525032,0.141076 1.05,1.05 0 0 1 0.382406,1.435055 1.05,1.05 0 0 1 -1.434538,0.382406 1.05,1.05 0 0 1 -0.382922,-1.434538 1.05,1.05 0 0 1 0.910022,-0.523999 z m -20.93774,0.311609 a 1.05,1.05 0 0 1 0.773596,0.326595 1.05,1.05 0 0 1 -0.03772,1.484664 1.05,1.05 0 0 1 -1.484147,-0.03772 1.05,1.05 0 0 1 0.03772,-1.484664 1.05,1.05 0 0 1 0.47749,-0.259933 1.05,1.05 0 0 1 0.233061,-0.02894 z m 18.966284,8.396385 c 0.03378,-1.3e-4 0.06751,0 0.101286,0 4.323253,0 8.647071,1.11964 12.524821,3.35845 7.75543,4.47759 12.52326,12.738044 12.52326,21.693254 v 11.05514 H 75.880388 c -6.55392,0 -9.134326,-3.02107 -9.134326,-11.05514 1e-6,-8.95521 4.767807,-17.215664 12.523267,-21.693254 3.84742,-2.22131 8.133544,-3.34109 12.423014,-3.35845 z m 26.203567,5.32061 a 1.05,1.05 0 0 1 0.52452,0.14159 1.05,1.05 0 0 1 0.38292,1.43454 1.05,1.05 0 0 1 -1.43505,0.38292 1.05,1.05 0 0 1 -0.38241,-1.43505 1.05,1.05 0 0 1 0.91002,-0.524 z m -74.073513,2.26136 a 1.05,1.05 0 0 1 1.049548,1.05006 1.05,1.05 0 0 1 -1.049548,1.05007 1.05,1.05 0 0 1 -1.050065,-1.05007 1.05,1.05 0 0 1 1.050065,-1.05006 z m 131.741833,0 a 1.05,1.05 0 0 1 1.05007,1.05006 1.05,1.05 0 0 1 -1.05007,1.05007 1.05,1.05 0 0 1 -1.05007,-1.05007 1.05,1.05 0 0 1 1.05007,-1.05006 z m -51.44492,7.700304 c 0.30553,-2e-5 0.7798,0.30727 1.40921,0.9369 l 17.08113,17.08112 c 1.03561,1.03561 0.30237,2.80655 -1.1622,2.80655 h -12.63696 c -2.19166,0 -3.96875,-1.77687 -3.96875,-3.96875 v -7.08639 c 0,-2.67818 -0.32494,-5.31115 -0.94671,-7.85016 -0.30936,-1.26328 -0.22227,-1.91923 0.22428,-1.91927 z m -65.696254,3.70624 c 0.527352,-0.009 0.742183,0.67223 0.578259,1.97972 -0.168584,1.34467 -0.255281,2.70796 -0.255282,4.08347 v 7.08639 c 0,2.19188 -1.776914,3.96875 -3.96875,3.96875 h -2.48822 c -2.514176,0 -4.466911,-1.95273 -4.466911,-4.46691 0.234629,-1.963 1.218819,-3.75946 2.746603,-5.01416 l 6.414079,-6.69158 c 0.604327,-0.63043 1.090923,-0.93958 1.440222,-0.94568 z m -14.600659,7.09362 a 1.05,1.05 0 0 1 1.049548,1.04955 1.05,1.05 0 0 1 -1.049548,1.05006 1.05,1.05 0 0 1 -1.050065,-1.05006 1.05,1.05 0 0 1 1.050065,-1.04955 z m 131.741833,0 a 1.05,1.05 0 0 1 1.05007,1.04955 1.05,1.05 0 0 1 -1.05007,1.05006 1.05,1.05 0 0 1 -1.05007,-1.05006 1.05,1.05 0 0 1 1.05007,-1.04955 z m -7.89874,1.74976 c 0.0167,-1.9e-4 0.0334,-7e-5 0.0501,0 2.10194,0.01 3.82453,1.69442 3.8685,3.80804 0,2.51418 -1.95266,4.46691 -4.46691,4.46691 h -6.41925 c -2.54093,0 -4.97843,-1.00969 -6.77529,-2.80655 l -2.66082,-2.66082 c -1.03561,-1.03558 -0.30237,-2.80654 1.1622,-2.80654 h 15.19132 c 0.0168,-3.5e-4 0.0334,-8.5e-4 0.0501,-10e-4 z m -105.060777,8.41706 a 1.05,1.05 0 0 1 1.050065,1.05007 1.05,1.05 0 0 1 -1.050065,1.05006 1.05,1.05 0 0 1 -1.050065,-1.05006 1.05,1.05 0 0 1 1.050065,-1.05007 z m 51.292997,2.81223 a 1.05,1.05 0 0 1 1.05006,1.05007 1.05,1.05 0 0 1 -1.05006,1.04955 1.05,1.05 0 0 1 -1.05007,-1.04955 1.05,1.05 0 0 1 1.05007,-1.05007 z m 27.99984,0 a 1.05,1.05 0 0 1 1.05007,1.05007 1.05,1.05 0 0 1 -1.05007,1.04955 1.05,1.05 0 0 1 -1.05006,-1.04955 1.05,1.05 0 0 1 1.05006,-1.05007 z" />
  </g>
</svg>
